<mxfile host="app.diagrams.net" modified="2024-12-01T08:27:49.695Z" agent="Mozilla/5.0 (Windows NT 10.0; Win64; x64) AppleWebKit/537.36 (KHTML, like Gecko) Chrome/131.0.0.0 Safari/537.36" version="23.1.5" etag="S0nRoO9mDWsOdc1X-Wzb" type="github">
  <diagram name="Σελίδα-1" id="4o6d808UBmGr08mL4I_R">
    <mxGraphModel>
      <root>
        <mxCell id="0" />
        <mxCell id="1" parent="0" />
      </root>
    </mxGraphModel>
  </diagram>
</mxfile>
